<svg id="Capa_1" enable-background="new 0 0 512 512" height="512" viewBox="0 0 512 512" width="512" xmlns="http://www.w3.org/2000/svg" xmlns:xlink="http://www.w3.org/1999/xlink"><linearGradient id="SVGID_1_" gradientUnits="userSpaceOnUse" x1="256" x2="256" y1="512" y2="0"><stop offset="0" stop-color="#a93aff"/><stop offset="1" stop-color="#ff81ff"/></linearGradient><g><g><g><path d="m361 300h-105-105c-57.897 0-105 47.103-105 105v92c0 8.284 6.716 15 15 15h390c8.284 0 15-6.716 15-15v-92c0-57.897-47.103-105-105-105zm-148.269 182h-61.731v-77c0-8.284-6.716-15-15-15s-15 6.716-15 15v77h-45v-77c0-41.355 33.645-75 75-75h50.73l23.83 47.661zm30.226 0 11.312-92h3.463l11.312 92zm18.772-122h-11.459l-15-30h41.459zm174.271 122h-45v-77c0-8.284-6.716-15-15-15s-15 6.716-15 15v77h-61.731l-12.829-104.339 23.83-47.661h50.73c41.355 0 75 33.645 75 75zm-90-272c0-10.077 0-94.458 0-105 0-41.355-33.645-75-75-75h-75v-15c0-8.284-6.716-15-15-15-41.355 0-75 33.645-75 75 0 36.219 25.808 66.522 60 73.491v61.509c0 49.626 40.374 90 90 90s90-40.374 90-90zm-30 0c0 33.084-26.916 60-60 60s-60-26.916-60-60v-60h120zm0-90h-135c-24.813 0-45-20.187-45-45 0-19.598 12.597-36.299 30.115-42.459 1.296 15.356 14.199 27.459 29.885 27.459h75c24.813 0 45 20.187 45 45z" fill="url(#SVGID_1_)"/></g></g></g></svg>